HIERARCHY
ROOT Hips
{
  OFFSET -5.66989 14.5892 -1.04108
  CHANNELS 6 Xposition Yposition Zposition Zrotation Xrotation Yrotation
  JOINT Bip01_Pelvis
  {
    OFFSET 0 0 0
    CHANNELS 6 Xposition Yposition Zposition Zrotation Xrotation Yrotation
    JOINT BN_Tail_01
    {
      OFFSET -1.93658 -0.0537033 0
      CHANNELS 6 Xposition Yposition Zposition Zrotation Xrotation Yrotation
      JOINT BN_Tail_02
      {
        OFFSET 3.80098 0 0
        CHANNELS 6 Xposition Yposition Zposition Zrotation Xrotation Yrotation
        JOINT BN_Tail_03
        {
          OFFSET 4.13452 0 0
          CHANNELS 6 Xposition Yposition Zposition Zrotation Xrotation Yrotation
          End Site
          {
            OFFSET 0 0 0
          }
        }
      }
    }
    JOINT Bip01_Spine
    {
      OFFSET 2.49484 0.4396 -0.350589
      CHANNELS 6 Xposition Yposition Zposition Zrotation Xrotation Yrotation
      JOINT Bip01_R_Thigh
      {
        OFFSET -2.36788 -0.528529 -2.17686
        CHANNELS 6 Xposition Yposition Zposition Zrotation Xrotation Yrotation
        JOINT Bip01_R_Calf
        {
          OFFSET 7.16877 0 0
          CHANNELS 6 Xposition Yposition Zposition Zrotation Xrotation Yrotation
          JOINT Bip01_R_HorseLink
          {
            OFFSET 5.71658 0 0
            CHANNELS 6 Xposition Yposition Zposition Zrotation Xrotation Yrotation
            JOINT Bip01_R_Foot
            {
              OFFSET 4.09528 0 0
              CHANNELS 6 Xposition Yposition Zposition Zrotation Xrotation Yrotation
              JOINT Bip01_R_Toe3
              {
                OFFSET 0.688901 -0.165618 -0.0515646
                CHANNELS 6 Xposition Yposition Zposition Zrotation Xrotation Yrotation
                JOINT Bip01_R_Toe3Nub
                {
                  OFFSET 2.31698 0 0
                  CHANNELS 6 Xposition Yposition Zposition Zrotation Xrotation Yrotation
                  End Site
                  {
                    OFFSET 0 0 0
                  }
                }
              }
              JOINT Bip01_R_Toe2
              {
                OFFSET 0.917067 0.515958 -0.245308
                CHANNELS 6 Xposition Yposition Zposition Zrotation Xrotation Yrotation
                JOINT Bip01_R_Toe2Nub
                {
                  OFFSET 2.54684 0 0
                  CHANNELS 6 Xposition Yposition Zposition Zrotation Xrotation Yrotation
                  End Site
                  {
                    OFFSET 0 0 0
                  }
                }
              }
              JOINT Bip01_R_Toe1
              {
                OFFSET 0.948626 0.783529 0.204368
                CHANNELS 6 Xposition Yposition Zposition Zrotation Xrotation Yrotation
                JOINT Bip01_R_Toe1Nub
                {
                  OFFSET 2.98415 0 0
                  CHANNELS 6 Xposition Yposition Zposition Zrotation Xrotation Yrotation
                  End Site
                  {
                    OFFSET 0 0 0
                  }
                }
              }
              JOINT Bip01_R_Toe0
              {
                OFFSET 0.945014 0.361084 0.455508
                CHANNELS 6 Xposition Yposition Zposition Zrotation Xrotation Yrotation
                JOINT Bip01_R_Toe0Nub
                {
                  OFFSET 2.53654 0 0
                  CHANNELS 6 Xposition Yposition Zposition Zrotation Xrotation Yrotation
                  End Site
                  {
                    OFFSET 0 0 0
                  }
                }
              }
            }
          }
        }
      }
      JOINT Bip01_L_Thigh
      {
        OFFSET -2.59706 -0.617793 2.62045
        CHANNELS 6 Xposition Yposition Zposition Zrotation Xrotation Yrotation
        JOINT Bip01_L_Calf
        {
          OFFSET 7.16876 0 0
          CHANNELS 6 Xposition Yposition Zposition Zrotation Xrotation Yrotation
          JOINT Bip01_L_HorseLink
          {
            OFFSET 5.71658 0 0
            CHANNELS 6 Xposition Yposition Zposition Zrotation Xrotation Yrotation
            JOINT Bip01_L_Foot
            {
              OFFSET 4.09528 0 0
              CHANNELS 6 Xposition Yposition Zposition Zrotation Xrotation Yrotation
              JOINT Bip01_L_Toe3
              {
                OFFSET 0.688902 -0.165618 0.0515647
                CHANNELS 6 Xposition Yposition Zposition Zrotation Xrotation Yrotation
                JOINT Bip01_L_Toe3Nub
                {
                  OFFSET 2.31698 0 0
                  CHANNELS 6 Xposition Yposition Zposition Zrotation Xrotation Yrotation
                  End Site
                  {
                    OFFSET 0 0 0
                  }
                }
              }
              JOINT Bip01_L_Toe2
              {
                OFFSET 0.917065 0.515959 0.245311
                CHANNELS 6 Xposition Yposition Zposition Zrotation Xrotation Yrotation
                JOINT Bip01_L_Toe2Nub
                {
                  OFFSET 2.54684 0 0
                  CHANNELS 6 Xposition Yposition Zposition Zrotation Xrotation Yrotation
                  End Site
                  {
                    OFFSET 0 0 0
                  }
                }
              }
              JOINT Bip01_L_Toe1
              {
                OFFSET 0.948627 0.78353 -0.204366
                CHANNELS 6 Xposition Yposition Zposition Zrotation Xrotation Yrotation
                JOINT Bip01_L_Toe1Nub
                {
                  OFFSET 2.98415 0 0
                  CHANNELS 6 Xposition Yposition Zposition Zrotation Xrotation Yrotation
                  End Site
                  {
                    OFFSET 0 0 0
                  }
                }
              }
              JOINT Bip01_L_Toe0
              {
                OFFSET 0.945014 0.361085 -0.455508
                CHANNELS 6 Xposition Yposition Zposition Zrotation Xrotation Yrotation
                JOINT Bip01_L_Toe0Nub
                {
                  OFFSET 2.53654 0 0
                  CHANNELS 6 Xposition Yposition Zposition Zrotation Xrotation Yrotation
                  End Site
                  {
                    OFFSET 0 0 0
                  }
                }
              }
            }
          }
        }
      }
      JOINT Bip01_Spine1
      {
        OFFSET 3.72608 -0.00323868 0.000187963
        CHANNELS 6 Xposition Yposition Zposition Zrotation Xrotation Yrotation
        JOINT BN_Finger_R_01
        {
          OFFSET 3.00123 -0.0843508 -4.58748
          CHANNELS 6 Xposition Yposition Zposition Zrotation Xrotation Yrotation
          JOINT BN_Finger_R_02
          {
            OFFSET 5.88015 0 0
            CHANNELS 6 Xposition Yposition Zposition Zrotation Xrotation Yrotation
            End Site
            {
              OFFSET 0 0 0
            }
          }
        }
        JOINT BN_Finger_L_01
        {
          OFFSET 3.00122 -0.0843704 4.58724
          CHANNELS 6 Xposition Yposition Zposition Zrotation Xrotation Yrotation
          JOINT BN_Finger_L_02
          {
            OFFSET 5.88015 0 0
            CHANNELS 6 Xposition Yposition Zposition Zrotation Xrotation Yrotation
            End Site
            {
              OFFSET 0 0 0
            }
          }
        }
        JOINT Bip01_Neck
        {
          OFFSET 4.13883 -0.0022707 1.01402e-005
          CHANNELS 6 Xposition Yposition Zposition Zrotation Xrotation Yrotation
          JOINT Bip01_Neck1
          {
            OFFSET 3.21838 -0.00219488 -2.03252e-005
            CHANNELS 6 Xposition Yposition Zposition Zrotation Xrotation Yrotation
            JOINT Bip01_Neck2
            {
              OFFSET 3.42188 -0.00260592 1.77622e-005
              CHANNELS 6 Xposition Yposition Zposition Zrotation Xrotation Yrotation
              JOINT Bip01_Head
              {
                OFFSET 3.32298 0 0
                CHANNELS 6 Xposition Yposition Zposition Zrotation Xrotation Yrotation
                JOINT BN_Mouth_01
                {
                  OFFSET 1.65821 0.977865 2.28871e-005
                  CHANNELS 6 Xposition Yposition Zposition Zrotation Xrotation Yrotation
                  End Site
                  {
                    OFFSET 0 0 0
                  }
                }
                JOINT Bip01_HeadNub
                {
                  OFFSET 4.48783 0 0
                  CHANNELS 6 Xposition Yposition Zposition Zrotation Xrotation Yrotation
                  End Site
                  {
                    OFFSET 0 0 0
                  }
                }
              }
            }
          }
        }
      }
    }
  }
}
MOTION
Frames:	4
Frame Time:	0.0333333
-2.22547 3.02685 -0.0581835 -102.555 -87.4677 -21.3754 9.53674e-007 1.38778e-017 -2.22045e-016 -90.0002 -8.28329 -90 -1.93658 -0.0537004 -2.5034e-006 16.0329 0.0827446 -177.733 3.80099 -2.86102e-006 -1.19209e-007 -7.23643 -0.137264 2.38061 4.13452 4.76837e-006 -1.19209e-007 -8.32951 0.0833357 -0.0750151 2.49328 -0.575736 -5.06639e-006 -6.73473 -1.13221 0.341216 -2.44137 0.694888 -2.42351 -111.044 4.05499 168.947 7.16876 4.76837e-007 0 -143.521 4.19039e-006 -3.99252e-006 5.71658 1.77636e-015 4.44089e-016 -121.511 -1.10661e-006 -3.50907e-006 4.09528 2.38419e-006 2.38419e-007 -122.034 -4.63773 13.3731 0.688901 -0.165618 -0.0515645 106.792 -3.13913 169.769 2.31698 -1.77636e-015 -2.38419e-007 -1.06125e-005 1.00272e-005 9.67999e-006 0.917067 0.515957 -0.245308 78.1049 -4.2368 22.1322 2.54684 -2.98023e-008 5.96046e-008 1.8795e-008 -1.92303e-007 7.78943e-008 0.948626 0.783529 0.204366 81.0657 2.85559 -15.3266 2.98415 1.49012e-008 1.77636e-015 -2.14924e-007 -9.9e-009 5.69089e-007 0.945014 0.361084 0.455508 84.6402 9.189 -52.8833 2.53654 -3.77476e-015 2.22045e-015 -1.20689e-007 9.75877e-006 9.98022e-006 -2.48034 0.707474 2.37993 -126.031 2.96564 -170.779 7.16876 -2.86102e-006 2.22045e-014 -155.52 -1.41504e-005 -5.34039e-006 5.71658 4.76837e-007 8.88178e-016 -135.717 -1.51178e-005 9.15206e-007 4.09528 1.19209e-007 1.33227e-015 -110.929 5.23615 -3.14722 0.688901 -0.165616 0.0515644 106.825 3.13887 -169.769 2.31698 -2.98023e-008 2.38419e-007 -180 -1.11251e-005 -3.30871e-006 0.917067 0.515958 0.245308 78.1379 4.23642 -22.1322 2.54684 -2.88658e-015 8.88178e-016 -180 -5.11037e-006 1.63251e-007 0.948626 0.783529 -0.204366 81.0988 -2.85593 15.3267 2.98415 1.11022e-015 2.38419e-007 -180 -1.00987e-005 -9.7032e-006 0.945015 0.361087 -0.455508 84.6732 -9.18933 52.8834 2.53654 -2.10943e-015 -1.78814e-007 -180 -3.16558e-007 1.68216e-005 3.72689 -0.00328636 -5.06639e-006 0.370741 0.0682908 -0.120837 3.00123 -0.0843535 -4.58748 7.80306 1.39522 172.734 5.88015 -2.86102e-006 -8.88178e-016 1.65719 -0.0598595 11.5422 3.00122 -0.0843697 4.58724 -167.801 0.904587 -7.96922 5.88015 9.53675e-007 2.38419e-007 -2.52818 0.109808 11.4556 4.13959 -0.00252438 -0.000134617 -73.4364 3.7876 -1.79582 3.22065 -0.00264454 -0.000109181 -7.98692 -1.31377 6.45889 3.42197 -0.00258827 -0.000106737 35.3985 -2.27172 4.64695 3.32298 9.53674e-007 -2.98023e-008 49.0828 -12.3229 6.01985 1.65821 0.977862 2.27591e-005 -165.167 1.52588e-005 -180 4.48783 1.06581e-014 0 -1.40146e-007 9.113e-006 1.92016e-007 
-2.22648 3.03529 -0.0581332 -102.555 -87.4677 -21.2945 9.53674e-007 0 -2.22045e-016 -90.0001 -7.9836 -90 -1.93658 -0.0537004 -2.5034e-006 15.9937 0.0705471 -177.731 3.80099 -2.86102e-006 -1.19209e-007 -7.18543 -0.134727 2.37743 4.13452 4.76837e-006 -1.19209e-007 -8.26617 0.0828638 -0.0724306 2.49328 -0.575736 -5.06639e-006 -6.63698 -1.13536 0.342711 -2.44137 0.694888 -2.42351 -110.891 4.08587 168.973 7.16876 4.76837e-007 -1.77636e-015 -143.426 1.53911e-005 1.10994e-005 5.71658 -3.10862e-015 1.77636e-015 -121.588 -1.98338e-006 -4.04653e-006 4.09528 2.38419e-006 2.38419e-007 -122.028 -4.59124 13.3655 0.688901 -0.165618 -0.0515645 106.793 -3.1392 169.769 2.31698 -2.77556e-015 -2.38419e-007 -1.06125e-005 1.00272e-005 9.67999e-006 0.917067 0.515957 -0.245308 78.1061 -4.23679 22.1323 2.54684 -2.98023e-008 5.96046e-008 1.8795e-008 -1.92303e-007 7.78943e-008 0.948626 0.783529 0.204366 81.0668 2.85558 -15.3265 2.98415 1.49012e-008 -8.88179e-016 -2.14924e-007 -9.9e-009 5.69089e-007 0.945014 0.361084 0.455508 84.6413 9.18901 -52.8832 2.53654 -4.88498e-015 1.77636e-015 -1.20689e-007 9.75877e-006 9.98027e-006 -2.48034 0.707474 2.37993 -125.897 2.95486 -170.783 7.16876 -2.86102e-006 2.26485e-014 -155.496 -1.41533e-005 -5.33434e-006 5.71658 4.76837e-007 0 -135.824 -1.00617e-005 6.08586e-006 4.09528 1.19209e-007 4.44089e-016 -110.833 5.22525 -3.15267 0.688901 -0.165616 0.0515644 106.825 3.13887 -169.769 2.31698 -2.98023e-008 2.38419e-007 -180 -1.11251e-005 -3.30871e-006 0.917067 0.515958 0.245308 78.1379 4.23642 -22.1322 2.54684 -1.94289e-015 2.66454e-015 -180 -5.11037e-006 1.63248e-007 0.948626 0.783529 -0.204366 81.0987 -2.85593 15.3267 2.98415 1.22125e-015 2.38419e-007 -180 -1.00987e-005 -9.7032e-006 0.945015 0.361087 -0.455508 84.6732 -9.18933 52.8834 2.53654 -1.55431e-015 -1.78814e-007 -180 -3.16558e-007 1.68216e-005 3.72689 -0.00328636 -5.06639e-006 0.175398 0.0687022 -0.120658 3.00123 -0.0843535 -4.58748 7.80633 1.39483 172.734 5.88015 -2.86102e-006 3.55271e-015 1.69054 -0.0531067 11.5403 3.00122 -0.0843697 4.58724 -167.837 0.909321 -7.96988 5.88015 9.53675e-007 2.38419e-007 -2.5133 0.112846 11.4551 4.13959 -0.00252438 -0.000134617 -73.2621 3.7581 -1.82188 3.22065 -0.00264454 -0.000109181 -7.89641 -1.33052 6.48324 3.42197 -0.00258827 -0.000106737 35.6687 -2.27279 4.68571 3.32298 9.53674e-007 -2.98023e-008 49.8305 -12.1942 6.1083 1.65821 0.977862 2.2759e-005 -165.167 1.52588e-005 -180 4.48783 -1.77636e-015 -1.11022e-016 -1.40146e-007 9.113e-006 1.92016e-007 
-2.22749 3.04362 -0.0580824 -102.555 -87.4678 -21.2491 9.53674e-007 -1.38778e-017 2.22045e-016 -90.0002 -7.80474 -90 -1.93658 -0.0537004 -2.5034e-006 15.9549 0.0828817 -177.731 3.80099 -2.86102e-006 -1.19209e-007 -7.11655 -0.132114 2.37956 4.13452 4.76837e-006 -1.19209e-007 -8.17665 0.0831663 -0.0754535 2.49328 -0.575736 -5.06639e-006 -6.60671 -1.13747 0.343046 -2.44137 0.694888 -2.42351 -110.782 4.11733 169.002 7.16876 4.76837e-007 -2.66454e-015 -143.32 -9.08648e-007 -1.08416e-005 5.71658 0 8.88179e-016 -121.67 -8.05425e-006 -7.78942e-006 4.09528 2.38419e-006 2.38419e-007 -122.055 -4.54897 13.3545 0.688901 -0.165618 -0.0515645 106.794 -3.13904 169.769 2.31698 -1.4988e-015 -2.38419e-007 -1.06125e-005 1.00272e-005 9.67999e-006 0.917067 0.515957 -0.245308 78.1073 -4.23679 22.1322 2.54684 -2.98023e-008 5.96046e-008 1.8795e-008 -1.92303e-007 7.78943e-008 0.948626 0.783529 0.204366 81.0681 2.85561 -15.3266 2.98415 1.49012e-008 4.44089e-016 -2.14924e-007 -9.9e-009 5.69089e-007 0.945014 0.361084 0.455508 84.6426 9.18902 -52.8833 2.53654 -2.33147e-015 0 -1.20689e-007 9.75877e-006 9.98024e-006 -2.48034 0.707474 2.37993 -125.812 2.94317 -170.787 7.16876 -2.86102e-006 2.22045e-014 -155.452 -1.01355e-005 3.48211e-006 5.71658 4.76837e-007 0 -135.949 -9.04848e-006 7.11915e-006 4.09528 1.19209e-007 0 -110.772 5.21677 -3.15318 0.688901 -0.165616 0.0515644 106.825 3.13891 -169.769 2.31698 -2.98023e-008 2.38419e-007 -180 -1.11251e-005 -3.30871e-006 0.917067 0.515958 0.245308 78.138 4.23641 -22.1321 2.54684 -3.10863e-015 0 -180 -5.11037e-006 1.63251e-007 0.948626 0.783529 -0.204366 81.0987 -2.85595 15.3268 2.98415 -1.11022e-016 2.38419e-007 -180 -1.00987e-005 -9.7032e-006 0.945015 0.361087 -0.455508 84.6732 -9.18934 52.8835 2.53654 -1.77636e-015 -1.78814e-007 -180 -3.16558e-007 1.68216e-005 3.72689 -0.00328636 -5.06639e-006 0.0335761 0.0690007 -0.120542 3.00123 -0.0843535 -4.58748 7.77876 1.3984 172.736 5.88015 -2.86102e-006 2.66454e-015 1.70654 -0.0499058 11.538 3.00122 -0.0843697 4.58724 -167.84 0.91095 -7.96412 5.88015 9.53675e-007 2.38419e-007 -2.53877 0.107708 11.4545 4.13959 -0.00252438 -0.000134617 -73.1396 3.73036 -1.84375 3.22065 -0.00264454 -0.000109181 -7.82338 -1.34837 6.50731 3.42197 -0.00258827 -0.000106737 35.9075 -2.27552 4.72309 3.32298 9.53674e-007 -2.98023e-008 50.3616 -12.0924 6.14707 1.65821 0.977862 2.27588e-005 -165.167 1.52588e-005 -180 4.48783 7.10543e-015 9.99201e-016 -1.40146e-007 9.113e-006 1.92016e-007 
-2.2285 3.05181 -0.0580311 -102.555 -87.4678 -21.2492 9.53674e-007 2.77556e-017 0 -90.0002 -7.78 -90 -1.93658 -0.0537004 -2.5034e-006 15.9298 0.0696628 -177.731 3.80099 -2.86102e-006 -1.19209e-007 -7.06946 -0.130372 2.3814 4.13452 4.76837e-006 -1.19209e-007 -8.10517 0.082945 -0.0746646 2.49328 -0.575736 -5.06639e-006 -6.66272 -1.13822 0.341885 -2.44137 0.694888 -2.42351 -110.73 4.14947 169.034 7.16876 4.76837e-007 -2.22045e-015 -143.199 4.5936e-006 -3.44854e-006 5.71658 4.44089e-016 1.77636e-015 -121.758 -8.04905e-006 -7.79427e-006 4.09528 2.38419e-006 2.38419e-007 -122.125 -4.51222 13.3392 0.688901 -0.165618 -0.0515645 106.795 -3.13905 169.769 2.31698 -2.94209e-015 -2.38419e-007 -1.06125e-005 1.00272e-005 9.67997e-006 0.917067 0.515957 -0.245308 78.1085 -4.2368 22.1323 2.54684 -2.98023e-008 5.96046e-008 1.8795e-008 -1.92303e-007 7.78943e-008 0.948626 0.783529 0.204366 81.0693 2.85559 -15.3266 2.98415 1.49012e-008 -1.33227e-015 -2.14924e-007 -9.9e-009 5.69089e-007 0.945014 0.361084 0.455508 84.6438 9.18902 -52.8833 2.53654 -3.88578e-015 0 -1.20687e-007 9.75877e-006 1.92318e-006 -2.48034 0.707474 2.37993 -125.791 2.93427 -170.792 7.16876 -2.86102e-006 2.13163e-014 -155.38 -1.41639e-005 -5.30768e-006 5.71658 4.76837e-007 0 -136.099 -8.18756e-006 8.00426e-006 4.09528 1.19209e-007 -8.88178e-016 -110.755 5.21139 -3.14737 0.688901 -0.165616 0.0515644 106.825 3.13893 -169.769 2.31698 -2.98023e-008 2.38419e-007 -180 -1.11251e-005 -3.30871e-006 0.917067 0.515958 0.245308 78.138 4.23643 -22.1321 2.54684 -3.71925e-015 8.88178e-016 -180 -5.11037e-006 1.63251e-007 0.948626 0.783529 -0.204366 81.0988 -2.85596 15.3267 2.98415 -5.55112e-016 2.38419e-007 -180 -1.00987e-005 -9.7032e-006 0.945015 0.361087 -0.455508 84.6732 -9.18934 52.8835 2.53654 -2.33147e-015 -1.78814e-007 -180 -3.16558e-007 1.68216e-005 3.72689 -0.00328636 -5.06639e-006 -0.0401759 0.0691558 -0.120508 3.00123 -0.0843535 -4.58748 7.77167 1.39925 172.735 5.88015 -2.86102e-006 5.32907e-015 1.74654 -0.0417153 11.5389 3.00122 -0.0843697 4.58724 -167.845 0.911725 -7.96367 5.88015 9.53675e-007 2.38419e-007 -2.573 0.100805 11.4539 4.13959 -0.00252438 -0.000134617 -73.0806 3.70497 -1.86054 3.22065 -0.00264454 -0.000109181 -7.76347 -1.36664 6.53112 3.42197 -0.00258827 -0.000106737 36.1133 -2.27988 4.75892 3.32298 9.53674e-007 -2.98023e-008 50.605 -12.0239 6.12566 1.65821 0.977862 2.27587e-005 -165.167 6.10352e-005 -180 4.48783 1.06581e-014 2.22045e-016 -1.40146e-007 9.113e-006 1.92016e-007 
